<svg width="699" height="350" viewBox="0 0 699 350" fill="none" xmlns="http://www.w3.org/2000/svg">
<path d="M684.043 348.825C693.822 233.73 645.053 -21.3723 413.624 1.43286C283.945 5.6706 292.155 101.603 242.177 115.989C192.198 130.373 93.1089 86.3493 40.311 184.906C-9.78886 278.424 57.7611 348.822 57.7611 348.822H684.043V348.825Z" fill="#DCECFD"/>
<path d="M684.043 348.825C684.043 348.825 683.447 292.344 679.797 273.306C679.797 273.306 660.994 291.943 661.862 315.182C661.862 315.182 665.28 283.19 635.466 263.284C635.466 263.284 626.684 278.613 630.037 309.589C630.037 309.589 614.999 292.541 589.579 291.286C589.579 291.286 591.08 318.528 606.735 335.217C606.735 335.217 601.673 325.597 569.328 324.606C569.328 324.606 579.452 341.142 588.735 348.822H684.04L684.043 348.825Z" fill="#BEDBFA"/>
<path d="M387.392 105.951C372.015 105.997 359.807 92.9875 360.549 77.688H414.233C414.975 92.9875 402.767 105.997 387.39 105.951H387.392Z" fill="#F9CE68"/>
<path d="M614.614 323.593C612.897 323.593 611.352 322.402 610.972 320.659L567.894 123.269L389.357 27.3039C387.543 26.3287 386.864 24.0684 387.84 22.2553C388.816 20.4422 391.077 19.7633 392.891 20.7385L574.452 118.328L618.263 319.072C618.794 321.359 616.959 323.622 614.616 323.595L614.614 323.593Z" fill="#152E60"/>
<path d="M433.778 87.726H343.007C339.818 54.2255 349.096 20.9055 388.395 19.4346C427.689 20.9055 436.972 54.2444 433.778 87.726Z" fill="#324D90"/>
<path d="M583.034 123.554C582.724 141.645 555.802 141.642 555.498 123.554C555.808 105.466 582.73 105.469 583.034 123.554Z" fill="#324D90"/>
<path d="M576.835 123.554C576.665 133.498 561.864 133.498 561.697 123.554C561.867 113.61 576.668 113.61 576.835 123.554Z" fill="#152E60"/>
<path d="M570.317 348.825C579.816 306.022 651.077 305.769 658.029 348.825H570.317Z" fill="#152E60"/>
<path d="M433.778 77.7522H343.007C342.4 77.7522 341.91 77.2619 341.91 76.6557C341.91 76.0496 342.4 75.5592 343.007 75.5592H433.778C435.174 75.5377 435.22 77.7737 433.778 77.7522Z" fill="#152E60"/>
<path d="M433.778 70.0959H343.007C342.4 70.0959 341.91 69.6056 341.91 68.9995C341.91 68.3933 342.4 67.903 343.007 67.903H433.778C435.174 67.8814 435.22 70.1175 433.778 70.0959Z" fill="#152E60"/>
<path d="M228.683 247.704H213.904C212.189 247.704 210.799 249.093 210.799 250.807V345.721C210.799 347.435 212.189 348.825 213.904 348.825H228.683C230.398 348.825 231.788 347.435 231.788 345.721V250.807C231.788 249.093 230.398 247.704 228.683 247.704Z" fill="#324D90"/>
<path d="M231.788 258.798H210.799V265.423H231.788V258.798Z" fill="#2A437D"/>
<path d="M231.788 268.588H210.799V275.213H231.788V268.588Z" fill="#2A437D"/>
<path d="M231.788 319.018H210.799V325.642H231.788V319.018Z" fill="#2A437D"/>
<path d="M231.788 328.808H210.799V335.432H231.788V328.808Z" fill="#2A437D"/>
<path d="M255.282 277.667H234.788C233.132 277.667 231.788 279.009 231.788 280.665V345.826C231.788 347.482 233.132 348.825 234.788 348.825H255.282C256.939 348.825 258.282 347.482 258.282 345.826V280.665C258.282 279.009 256.939 277.667 255.282 277.667Z" fill="#2A437D"/>
<path d="M258.282 288.012H231.788V293.478H258.282V288.012Z" fill="#324D90"/>
<path d="M258.282 331.61H231.788V337.076H258.282V331.61Z" fill="#324D90"/>
<path d="M253.877 313.245C253.678 324.861 236.389 324.859 236.193 313.245C236.392 301.628 253.681 301.631 253.877 313.245Z" fill="#324D90"/>
<path d="M207.33 265.422H187.743C185.827 265.422 184.273 266.975 184.273 268.89V345.357C184.273 347.272 185.827 348.825 187.743 348.825H207.33C209.246 348.825 210.799 347.272 210.799 345.357V268.89C210.799 266.975 209.246 265.422 207.33 265.422Z" fill="#F9CE68"/>
<path d="M184.273 275.215C193.05 274.456 202.023 274.45 210.799 275.215C202.023 275.98 193.05 275.975 184.273 275.215Z" fill="#F08F3C"/>
<path d="M184.273 282.654C193.05 281.894 202.023 281.889 210.799 282.654C202.023 283.419 193.05 283.414 184.273 282.654Z" fill="#F08F3C"/>
<path d="M184.273 332.122C193.05 331.362 202.023 331.357 210.799 332.122C202.023 332.887 193.05 332.881 184.273 332.122Z" fill="#F08F3C"/>
<path d="M184.273 339.563C193.05 338.803 202.023 338.797 210.799 339.563C202.023 340.328 193.05 340.322 184.273 339.563Z" fill="#F08F3C"/>
<path d="M203.923 287.815H192.546V326.432H203.923V287.815Z" fill="#F08F3C"/>
<path d="M163.783 348.725L145.858 344.598C143.759 344.113 142.449 342.02 142.931 339.921L162.953 253.059C163.438 250.961 165.532 249.651 167.632 250.134L185.557 254.261C187.656 254.746 188.966 256.839 188.484 258.938L168.462 345.799C167.977 347.898 165.883 349.207 163.783 348.725Z" fill="#4292F3"/>
<path d="M183.03 262.103L166.511 258.3L165.476 262.79L181.995 266.592L183.03 262.103Z" fill="#324D90"/>
<path d="M181.365 269.331L164.846 265.528L163.812 270.018L180.331 273.82L181.365 269.331Z" fill="#324D90"/>
<path d="M167.834 328.055L151.315 324.252L150.281 328.742L166.8 332.544L167.834 328.055Z" fill="#324D90"/>
<path d="M166.168 335.283L149.649 331.48L148.614 335.969L165.133 339.772L166.168 335.283Z" fill="#324D90"/>
<path d="M177.869 276.554C174.818 292.32 171.168 308.172 167.007 323.678C170.052 307.913 173.713 292.064 177.869 276.554Z" fill="#324D90"/>
<path d="M171.23 275.479C168.179 291.245 164.53 307.097 160.368 322.604C163.414 306.838 167.074 290.989 171.23 275.479Z" fill="#324D90"/>
<path d="M164.589 274.407C161.538 290.173 157.888 306.025 153.726 321.532C156.772 305.766 160.432 289.917 164.589 274.407Z" fill="#324D90"/>
<path d="M386.379 184.906H357.756L359.767 171.931L351.724 184.906H345.244C347.371 102.166 425.045 97.5187 425.444 184.906H419.023L416.614 165.287L413.778 184.906H401.934V165.57L398.15 184.906H386.376H386.379Z" fill="#59445A"/>
<path d="M366.737 159.202C368.25 168.747 360.236 170.105 358.511 160.597C356.999 151.052 365.012 149.695 366.737 159.202Z" fill="#EDA19D"/>
<path d="M406.029 159.202C404.516 168.747 412.53 170.105 414.255 160.597C415.767 151.052 407.754 149.695 406.029 159.202Z" fill="#EDA19D"/>
<path d="M398.484 167.241H374.277C377.196 175.571 370.826 217.296 370.826 217.296H401.934C401.934 217.296 395.562 175.571 398.484 167.241Z" fill="#F4D2C6"/>
<path d="M409.735 160.379C409.153 197.735 363.608 197.729 363.031 160.379C358.888 122.142 412.64 121.768 409.735 160.379Z" fill="#F4D2C6"/>
<path d="M374.608 184.906C374.608 184.906 385.576 193.36 398.153 184.906L398.813 192.473C398.813 192.473 385.274 198.796 373.942 192.551L374.608 184.906Z" fill="#EDA19D"/>
<path d="M391.112 131.984V149.875C391.112 149.875 376.657 151.057 363.349 153.113C359.627 129.947 390.436 121.361 391.112 131.986V131.984Z" fill="#59445A"/>
<path d="M390.958 130.604L394.773 149.023C394.773 149.023 401.902 149.996 409.295 153.11C409.295 153.11 415.824 126.741 390.958 130.604Z" fill="#59445A"/>
<path d="M434.231 229.646C429.595 204.375 409.104 198.586 386.382 200.078V200.065C386.217 200.07 385.886 200.07 385.721 200.065V200.078C363.36 198.47 342.902 204.968 338.53 229.646L329.061 311.685C381.967 326.957 390.985 326.055 443.7 311.685L434.231 229.643V229.646Z" fill="#4292F3"/>
<mask id="mask0_493_3838" style="mask-type:luminance" maskUnits="userSpaceOnUse" x="329" y="199" width="115" height="124">
<path d="M434.231 229.646C429.595 204.375 409.104 198.586 386.382 200.078V200.065C386.217 200.07 385.886 200.07 385.721 200.065V200.078C363.36 198.47 342.902 204.968 338.53 229.646L329.061 311.685C381.967 326.957 390.985 326.055 443.7 311.685L434.231 229.643V229.646Z" fill="white"/>
</mask>
<g mask="url(#mask0_493_3838)">
<path d="M335.686 271.891C355.144 282.667 397.465 308.29 429.872 304.381C381.511 329.49 384.581 329.719 333.921 309.928L335.686 271.891Z" fill="#3C7ED7"/>
</g>
<path d="M367.675 200.455C369.969 215.833 402.829 215.766 405.082 200.455C405.082 200.455 385.988 199.106 367.675 200.455Z" fill="#F4D2C6"/>
<path d="M386.379 212.088L374.584 223.84C374.584 223.84 362.589 216.456 364.527 201.091L367.675 200.456L386.376 212.088H386.379Z" fill="white"/>
<path d="M386.379 212.088L398.174 223.84C398.174 223.84 410.169 216.456 408.231 201.091L405.083 200.456L386.382 212.088H386.379Z" fill="white"/>
<path d="M325.78 246.532C324.918 264.218 311.832 294.332 339.794 297.247L337.53 254.614L325.78 246.532Z" fill="#EDA19D"/>
<path d="M445.366 247.685C446.484 266.058 458.886 295.046 431.285 299.659L433.616 255.77L445.366 247.688V247.685Z" fill="#EDA19D"/>
<path d="M364.064 332.849C364.064 332.849 354.967 327.208 350.171 328.689C349.452 328.91 344.449 335.082 344.449 335.082L327.457 341.513C324.303 342.607 322.694 345.692 322.231 348.825H365.295L364.064 332.849Z" fill="#EDA19D"/>
<path d="M362.913 329.328C362.913 329.328 438.573 287.457 465.525 291.129C492.476 294.801 493.654 332.294 470.379 340.252C447.104 348.21 364.414 348.822 364.414 348.822L362.913 329.328Z" fill="#2A437D"/>
<path d="M409.843 329.328C409.843 329.328 334.182 287.457 307.231 291.129C280.279 294.801 279.101 332.294 302.376 340.252C325.651 348.21 408.341 348.822 408.341 348.822L409.843 329.328Z" fill="#324D90"/>
<path d="M409.57 332.849C409.57 332.849 418.667 327.208 423.463 328.689C424.182 328.91 429.185 335.082 429.185 335.082L446.177 341.513C449.331 342.607 450.94 345.692 451.403 348.825H408.339L409.57 332.849Z" fill="#F4D2C6"/>
<path d="M327.123 218.57L380.115 240.847V301.189L327.123 278.066V218.57Z" fill="#F9CE68"/>
<path d="M443.568 218.57L390.576 240.847V301.189L443.568 278.066V218.57Z" fill="#F9CE68"/>
<path d="M390.573 240.847H380.115V301.188H390.573V240.847Z" fill="#F08F3C"/>
<path d="M330.721 220.084L342.905 217.299L385.112 235.292L380.115 240.847L330.721 220.084Z" fill="white"/>
<path d="M385.112 235.292L390.576 240.847L438.662 220.634L429.864 217.31L385.112 235.292Z" fill="white"/>
<path d="M385.112 235.292L380.115 240.848H390.576L385.112 235.292Z" fill="#DCECFD"/>
<path d="M443.325 240.053C439.506 242.37 431.835 244.727 431.46 250.115C430.231 256.527 437.605 262.09 443.476 259.388C444.711 258.219 446.069 256.77 445.972 254.94V244.237C445.972 242.448 444.942 240.818 443.325 240.05V240.053Z" fill="#F4D2C6"/>
<path d="M327.128 240.053C330.948 242.37 338.619 244.727 338.993 250.115C340.223 256.527 332.848 262.09 326.977 259.388C325.743 258.219 324.384 256.77 324.481 254.94V244.237C324.481 242.448 325.511 240.818 327.128 240.05V240.053Z" fill="#F4D2C6"/>
<path d="M469.174 100.221C440.638 100.094 415.969 119.427 433.861 139.702C427.503 167.71 428.932 159.178 452.188 149.845C508.015 165.371 540.991 105.367 469.172 100.218L469.174 100.221Z" fill="white"/>
<path d="M453.026 125.79C453.004 130.645 445.619 130.645 445.597 125.79C445.619 120.935 453.004 120.935 453.026 125.79Z" fill="#DCECFD"/>
<path d="M474.651 125.79C474.63 130.645 467.244 130.645 467.223 125.79C467.244 120.935 474.63 120.935 474.651 125.79Z" fill="#DCECFD"/>
<path d="M496.277 125.79C496.255 130.645 488.87 130.645 488.848 125.79C488.87 120.935 496.255 120.935 496.277 125.79Z" fill="#DCECFD"/>
<path d="M526.282 264.159V313.39H528.306V264.159H526.282Z" fill="#152E60"/>
<path d="M528.306 264.159V313.39H530.331V264.159H528.306Z" fill="#324D90"/>
<path d="M524.258 264.159V313.39H526.282V264.159H524.258Z" fill="#324D90"/>
<path d="M524.258 313.39L526.953 324.837L530.331 313.39H524.258Z" fill="white"/>
<mask id="mask1_493_3838" style="mask-type:luminance" maskUnits="userSpaceOnUse" x="524" y="313" width="7" height="12">
<path d="M524.258 313.39L526.953 324.837L530.331 313.39H524.258Z" fill="white"/>
</mask>
<g mask="url(#mask1_493_3838)">
<path d="M525.077 320.23V325.278H528.673V320.23H525.077Z" fill="#152E60"/>
</g>
<path d="M524.258 257.604V264.159H530.331V257.604H524.258Z" fill="#F9CE68"/>
<path d="M524.258 261.387V262.847H530.331V261.387H524.258Z" fill="#F08F3C"/>
<path d="M524.258 258.911V260.371H530.331V258.911H524.258Z" fill="#F08F3C"/>
<path d="M530.331 256.915V257.604H524.258C524.015 255.713 525.296 253.862 527.296 253.881C528.972 253.881 530.333 255.239 530.333 256.917L530.331 256.915Z" fill="white"/>
<path d="M543.626 264.711L531.435 312.41L533.396 312.911L545.587 265.212L543.626 264.711Z" fill="#F08F3C"/>
<path d="M545.589 265.211L533.398 312.91L535.359 313.411L547.55 265.712L545.589 265.211Z" fill="#F9CE68"/>
<path d="M541.665 264.213L529.474 311.913L531.435 312.413L543.626 264.714L541.665 264.213Z" fill="#F9CE68"/>
<path d="M529.452 311.889L529.231 323.649L535.336 313.392L529.452 311.889Z" fill="white"/>
<mask id="mask2_493_3838" style="mask-type:luminance" maskUnits="userSpaceOnUse" x="529" y="311" width="7" height="13">
<path d="M529.452 311.889L529.231 323.649L535.336 313.392L529.452 311.889Z" fill="white"/>
</mask>
<g mask="url(#mask2_493_3838)">
<path d="M528.579 318.747L527.329 323.639L530.813 324.528L532.063 319.637L528.579 318.747Z" fill="#152E60"/>
</g>
<path d="M543.289 257.862L541.666 264.212L547.55 265.715L549.173 259.364L543.289 257.862Z" fill="#324D90"/>
<path d="M542.351 261.526L541.99 262.94L547.874 264.443L548.235 263.028L542.351 261.526Z" fill="#152E60"/>
<path d="M542.964 259.124L542.602 260.539L548.486 262.041L548.847 260.627L542.964 259.124Z" fill="#152E60"/>
<path d="M549.32 258.676L549.15 259.344L543.266 257.841C543.773 253.431 550.204 254.312 549.32 258.676Z" fill="white"/>
<path d="M538.433 348.825C482.355 348.97 500.266 355.705 497.323 287.815H546.215V341.047C546.215 345.341 542.732 348.825 538.433 348.825Z" fill="white"/>
<path d="M517.819 238.509H501.662V287.815H517.819V238.509Z" fill="#BEDBFA"/>
<path d="M507.802 244.988H501.662V247.318H507.802V244.988Z" fill="#DCECFD"/>
<path d="M507.802 250.311H501.662V252.641H507.802V250.311Z" fill="#DCECFD"/>
<path d="M507.802 255.632H501.662V257.962H507.802V255.632Z" fill="#DCECFD"/>
<path d="M507.802 260.956H501.662V263.286H507.802V260.956Z" fill="#DCECFD"/>
<path d="M507.802 266.279H501.662V268.609H507.802V266.279Z" fill="#DCECFD"/>
<path d="M507.802 271.6H501.662V273.93H507.802V271.6Z" fill="#DCECFD"/>
<path d="M507.802 276.923H501.662V279.253H507.802V276.923Z" fill="#DCECFD"/>
<path d="M507.802 282.247H501.662V284.577H507.802V282.247Z" fill="#DCECFD"/>
<path d="M517.816 241.254H515.236V287.815H517.816V241.254Z" fill="white"/>
<path d="M546.212 296.323H497.32V302.191H546.212V296.323Z" fill="#BEDBFA"/>
<path d="M546.212 306.98H497.32V312.848H546.212V306.98Z" fill="#BEDBFA"/>
<path d="M44.9309 137.005C44.9309 137.005 82.9822 220.653 91.2814 281.194H99.8583C99.8583 281.194 82.2356 200.054 44.9282 137.005H44.9309Z" fill="white"/>
<path d="M50.1223 147.793C50.1223 147.793 40.4296 141.066 50.1223 125.19C63.0388 85.6032 -21.2687 109.626 5.16265 175.509L21.3163 160.441C1.72868 191.199 12.7368 199.529 25.0845 226.367L37.7368 214.527C37.7368 214.527 28.8527 230.133 29.1223 232.017C29.3918 233.9 48.2382 259.194 48.2382 259.194C48.2382 259.194 88.0819 203.225 88.621 200.265C89.1601 197.304 66.276 177.392 66.276 177.392L92.9283 195.421C96.117 182.303 112.621 133.687 78.1223 129.225C78.1223 129.225 90.2383 130.033 96.9688 134.069C96.9688 134.069 94.5456 109.044 75.1628 111.197C55.78 113.349 59.0091 125.19 58.47 132.991C57.9309 140.793 50.125 147.79 50.125 147.79L50.1223 147.793Z" fill="#BEDBFA"/>
<path d="M147.621 122.641C147.621 122.641 142.308 117.802 145.26 111.428C158.503 75.2794 102.06 72.7174 104.759 135.386L119.756 130.429C119.756 130.429 107.238 140.696 106.885 147.07C106.532 153.445 125.424 193.454 125.424 193.454L133.807 183.421C133.807 183.421 129.085 196.404 129.556 198.292C130.028 200.181 145.497 217.883 145.497 217.883C145.497 217.883 164.036 192.037 164.155 190.03C164.273 188.023 153.055 174.331 153.055 174.331L168.877 185.189C168.877 185.189 189.187 158.396 189.069 153.676C188.95 148.956 170.53 134.675 170.53 134.675L190.84 145.532C190.84 145.532 192.729 126.884 188.95 118.268L171.357 111.186L188.007 115.081C188.007 115.081 180.804 89.5875 172.656 88.1731C164.508 86.7561 150.81 103.871 151.047 111.541C151.284 119.214 147.624 122.635 147.624 122.635L147.621 122.641Z" fill="#BEDBFA"/>
<path d="M91.2841 281.193C91.2841 281.193 99.1817 186.085 147.621 122.641C147.621 122.641 104.004 212.013 99.8636 281.193H91.2868H91.2841Z" fill="white"/>
<path d="M95.683 281.194H51.9687L64.745 342.621C65.4134 345.835 68.2463 348.138 71.532 348.138H119.834C123.12 348.138 125.953 345.835 126.621 342.621L139.397 281.194H95.683Z" fill="#BEDBFA"/>
<path d="M574.498 349.487H568.94L586.282 320.594H591.84L574.498 349.487Z" fill="#F08F3C"/>
<path d="M625.401 349.487H630.959L613.617 320.594H608.059L625.401 349.487Z" fill="#F08F3C"/>
<path d="M585.808 255.457L581.635 257.637L571.258 237.803C570.654 236.653 571.102 235.23 572.253 234.627C573.404 234.023 574.827 234.47 575.431 235.621L585.808 255.454V255.457Z" fill="#324D90"/>
<path d="M589.797 242.173C582.431 228.245 561.201 239.349 568.441 253.334L589.797 242.173Z" fill="#F08F3C"/>
<mask id="mask3_493_3838" style="mask-type:luminance" maskUnits="userSpaceOnUse" x="566" y="235" width="24" height="19">
<path d="M589.797 242.173C582.431 228.245 561.201 239.349 568.441 253.334L589.797 242.173Z" fill="white"/>
</mask>
<g mask="url(#mask3_493_3838)">
<path d="M583.749 235.144C583.749 235.144 577.358 247.356 566.538 252.858C558.35 239.306 574.503 232.701 583.749 235.144Z" fill="#F9CE68"/>
</g>
<path d="M623.253 255.993L618.759 254.587L625.455 233.229C625.843 231.989 627.164 231.297 628.406 231.688C629.649 232.078 630.339 233.396 629.948 234.638L623.253 255.996V255.993Z" fill="#324D90"/>
<path d="M635.474 249.42C640.118 234.363 617.253 227.213 612.476 242.219L635.474 249.42Z" fill="#F08F3C"/>
<mask id="mask4_493_3838" style="mask-type:luminance" maskUnits="userSpaceOnUse" x="612" y="233" width="25" height="17">
<path d="M635.474 249.42C640.118 234.363 617.253 227.213 612.476 242.219L635.474 249.42Z" fill="white"/>
</mask>
<g mask="url(#mask4_493_3838)">
<path d="M636.166 240.174C636.166 240.174 623.007 244.293 611.463 240.535C615.261 225.165 631.355 231.911 636.166 240.174Z" fill="#F9CE68"/>
</g>
<path d="M604.603 330.592C549.724 329.608 549.732 248.092 604.603 247.117C659.482 248.1 659.471 329.617 604.603 330.592Z" fill="#F08F3C"/>
<path d="M599.476 330.592C544.598 329.608 544.606 248.092 599.476 247.117C654.355 248.1 654.344 329.617 599.476 330.592Z" fill="#F9CE68"/>
<path d="M633.883 288.856C633.11 334.059 565.837 334.054 565.069 288.856C565.843 243.652 633.115 243.66 633.883 288.856Z" fill="white"/>
<mask id="mask5_493_3838" style="mask-type:luminance" maskUnits="userSpaceOnUse" x="565" y="254" width="69" height="69">
<path d="M633.883 288.856C633.11 334.059 565.837 334.054 565.069 288.856C565.843 243.652 633.115 243.66 633.883 288.856Z" fill="white"/>
</mask>
<g mask="url(#mask5_493_3838)">
<path opacity="0.67" d="M618.719 254.466C637.503 297.175 588.994 322.375 558.643 299.57C587.134 367.509 680.859 305.855 618.719 254.466Z" fill="#DCECFD"/>
</g>
<path d="M600.759 265.568L597.956 281.776L600.759 287.536L603.563 281.776L600.759 265.568Z" fill="#324D90"/>
<path d="M616.104 294.963L607.42 288.581L602.956 289.853L605.387 293.805L616.104 294.963Z" fill="#324D90"/>
<path d="M605.323 288.581C605.22 294.575 596.298 294.575 596.196 288.581C596.298 282.586 605.22 282.586 605.323 288.581Z" fill="#152E60"/>
<path d="M599.913 318.563C599.385 318.547 598.851 318.512 598.328 318.474L598.536 315.788C599.002 315.823 599.476 315.853 599.948 315.872C599.905 316.524 599.897 317.906 599.91 318.566L599.913 318.563ZM605.064 318.121L604.603 315.467C605.067 315.387 605.533 315.292 605.989 315.19L606.587 317.817C606.086 317.93 605.573 318.032 605.064 318.121ZM593.255 317.73C592.751 317.62 592.247 317.496 591.754 317.364L592.455 314.762C592.908 314.883 593.371 314.996 593.835 315.098L593.255 317.73ZM611.511 316.233L610.468 313.749C610.9 313.568 611.334 313.371 611.754 313.169L612.927 315.597C612.463 315.82 611.989 316.036 611.514 316.235L611.511 316.233ZM586.9 315.624C586.431 315.408 585.959 315.179 585.503 314.942L586.749 312.553C587.164 312.768 587.59 312.978 588.018 313.172L586.897 315.624H586.9ZM617.369 312.957L615.797 310.766C616.177 310.494 616.557 310.206 616.924 309.915L618.606 312.019C618.201 312.34 617.786 312.655 617.369 312.957ZM581.148 312.14C580.738 311.82 580.334 311.486 579.948 311.146L581.724 309.12C582.075 309.427 582.439 309.729 582.808 310.017L581.148 312.14ZM622.352 308.46L620.336 306.674C620.649 306.321 620.954 305.957 621.247 305.594L623.355 307.275C623.034 307.676 622.697 308.075 622.355 308.463L622.352 308.46ZM576.379 307.383C576.059 306.976 575.749 306.556 575.449 306.13L577.66 304.586C577.929 304.971 578.209 305.351 578.501 305.72L576.379 307.385V307.383ZM626.218 302.972L623.854 301.677C624.08 301.264 624.298 300.841 624.501 300.419L626.929 301.588C626.706 302.054 626.466 302.517 626.218 302.97V302.972ZM572.878 301.642C572.662 301.173 572.455 300.693 572.263 300.214L574.767 299.214C574.943 299.651 575.129 300.087 575.325 300.513L572.878 301.642ZM628.765 296.755L626.172 296.022C626.299 295.575 626.417 295.114 626.52 294.653L629.148 295.249C629.032 295.752 628.905 296.259 628.765 296.755ZM570.759 295.273C570.652 294.769 570.554 294.257 570.471 293.751L573.131 293.314C573.207 293.778 573.296 294.246 573.395 294.704L570.759 295.273ZM629.854 290.133L627.161 289.995C627.185 289.505 627.199 289.007 627.196 288.514H629.891C629.891 289.052 629.878 289.597 629.851 290.133H629.854ZM572.746 288.613H570.05C570.05 288.101 570.061 287.581 570.085 287.067L572.778 287.193C572.757 287.665 572.746 288.142 572.746 288.613ZM626.786 283.829C626.706 283.365 626.611 282.899 626.506 282.444L629.134 281.84C629.25 282.339 629.352 282.851 629.441 283.363L626.786 283.829ZM573.382 282.514L570.746 281.953C570.854 281.447 570.975 280.941 571.107 280.445L573.714 281.137C573.592 281.59 573.482 282.05 573.385 282.514H573.382ZM625.059 277.972C624.878 277.541 624.681 277.11 624.476 276.687L626.902 275.512C627.126 275.975 627.342 276.45 627.544 276.924L625.061 277.972H625.059ZM575.298 276.705L572.848 275.585C573.064 275.116 573.293 274.647 573.533 274.192L575.921 275.442C575.703 275.857 575.495 276.283 575.298 276.708V276.705ZM622.064 272.648C621.792 272.268 621.503 271.891 621.21 271.525L623.312 269.838C623.635 270.24 623.951 270.657 624.253 271.072L622.064 272.646V272.648ZM578.46 271.493L576.336 269.836C576.654 269.426 576.988 269.022 577.328 268.634L579.358 270.407C579.05 270.757 578.749 271.123 578.46 271.493ZM617.962 268.12C617.608 267.81 617.245 267.503 616.878 267.212L618.557 265.102C618.962 265.423 619.361 265.76 619.749 266.099L617.964 268.12H617.962ZM582.754 267.185L581.088 265.067C581.495 264.749 581.916 264.437 582.339 264.14L583.886 266.347C583.503 266.616 583.123 266.896 582.754 267.185ZM612.956 264.612C612.544 264.386 612.118 264.17 611.697 263.968L612.865 261.538C613.328 261.762 613.794 261.999 614.247 262.247L612.956 264.612ZM587.959 264.017L586.832 261.568C587.298 261.355 587.778 261.147 588.258 260.956L589.255 263.459C588.816 263.634 588.379 263.82 587.956 264.017H587.959ZM607.293 262.306C606.843 262.179 606.382 262.063 605.924 261.961L606.517 259.332C607.021 259.445 607.528 259.574 608.024 259.711L607.296 262.306H607.293ZM593.77 262.077L593.183 259.447C593.681 259.337 594.188 259.235 594.695 259.146L595.164 261.799C594.697 261.883 594.228 261.974 593.767 262.077H593.77ZM601.261 261.325C600.811 261.304 600.352 261.29 599.9 261.293C599.905 261.239 599.792 258.661 599.792 258.601C600.325 258.591 600.867 258.612 601.395 258.634L601.263 261.325H601.261Z" fill="#324D90"/>
<path d="M25.7772 348.825C248.349 347.265 476.314 347.252 698.886 348.825C476.314 350.398 248.349 350.385 25.7772 348.825Z" fill="#152E60"/>
</svg>
